<?xml version="1.0" encoding="UTF-8"?>
<svg id="Layer_1" data-name="Layer 1" xmlns="http://www.w3.org/2000/svg" viewBox="0 0 715.12 113.63">
  <defs>
    <style>
      .cls-1 {
        fill: #e96900;
      }

      .cls-1, .cls-2 {
        stroke-width: 0px;
      }

      .cls-2 {
        fill: #fff;
      }
    </style>
  </defs>
  <g>
    <path class="cls-1" d="M106.88.21h-35.82v50.68h24.79c0,10.36-1.42,18.68-4.25,24.97-2.84,6.29-8.82,9.56-17.94,9.8l5.18,18.13c16.28-.24,27.31-5.73,33.11-16.46,5.79-10.73,9.06-26.45,9.8-47.17.24-6.16.37-12.58.37-19.24v-5.49c0-8.41-6.82-15.23-15.23-15.23Z"/>
    <path class="cls-1" d="M0,15.44v5.49c0,6.66.13,13.08.37,19.24.74,20.72,4.01,36.44,9.8,47.17,5.8,10.73,16.83,16.22,33.11,16.46l5.18-18.13c-9.12-.24-15.1-3.52-17.94-9.8-2.83-6.29-4.25-14.61-4.25-24.97h24.79V.21H15.23C6.82.21,0,7.03,0,15.44Z"/>
    <circle class="cls-1" cx="42.31" cy="65.86" r="8.74" transform="translate(-34.73 79.75) rotate(-67.5)"/>
    <circle class="cls-1" cx="79.8" cy="65.86" r="8.74"/>
  </g>
  <g>
    <path class="cls-2" d="M239.03,28.76c-3.68-3.13-7.56-5.48-11.66-7.04-4.1-1.57-8.4-2.35-12.92-2.35-8.74,0-15.85,2.8-21.33,8.41-5.48,5.61-8.22,12.87-8.22,21.79s2.67,15.75,8,21.35c5.33,5.61,12.06,8.41,20.18,8.41,4.73,0,9.24-.84,13.52-2.51,4.28-1.67,8.38-4.21,12.32-7.59v14.69c-3.5,2.51-7.3,4.39-11.41,5.63-4.11,1.24-8.57,1.86-13.38,1.86-6.12,0-11.77-1-16.96-3-5.19-2-9.75-4.95-13.68-8.85-3.9-3.82-6.89-8.33-8.98-13.52-2.09-5.19-3.14-10.71-3.14-16.58s1.05-11.37,3.14-16.52c2.09-5.15,5.12-9.68,9.09-13.57,3.97-3.93,8.52-6.91,13.65-8.93,5.13-2.02,10.69-3.03,16.66-3.03,4.7,0,9.18.68,13.44,2.05,4.26,1.37,8.39,3.43,12.4,6.2l-.71,13.11Z"/>
    <path class="cls-2" d="M251.36,89.27V4.62h11.14v41.34c2.37-3.57,5.15-6.17,8.36-7.81,3.2-1.64,7.1-2.46,11.69-2.46,3.86,0,7.15.61,9.86,1.83,2.71,1.22,4.83,3.03,6.36,5.43.91,1.42,1.57,3.08,1.97,4.97.4,1.89.6,5.21.6,9.94v31.4h-11.96v-26.6c0-6.81-.83-11.33-2.49-13.57s-4.6-3.36-8.82-3.36c-2.77,0-5.23.51-7.4,1.53-2.17,1.02-3.87,2.46-5.11,4.31-.87,1.24-1.48,2.83-1.83,4.78-.35,1.95-.52,5.05-.52,9.31v23.59h-11.85Z"/>
    <path class="cls-2" d="M364.18,65.13h-41.4c.29,4.84,1.73,8.62,4.32,11.33,2.58,2.71,6.03,4.07,10.32,4.07,3.82,0,7.01-.8,9.56-2.4,2.55-1.6,4.77-4.19,6.66-7.75l10,5.57c-2.91,5.21-6.52,9.08-10.81,11.63-4.3,2.55-9.34,3.82-15.13,3.82-8.3,0-14.91-2.53-19.83-7.59-4.92-5.06-7.37-11.81-7.37-20.26s2.54-14.79,7.62-20.02c5.08-5.22,11.61-7.84,19.58-7.84s14.84,2.38,19.5,7.15c4.66,4.77,6.99,11.45,6.99,20.04v2.24ZM351.9,57.16c-.47-3.71-1.89-6.54-4.26-8.49-2.37-1.95-5.61-2.92-9.72-2.92-3.9,0-7.03.95-9.39,2.84-2.37,1.89-4.02,4.75-4.97,8.57h28.35Z"/>
    <path class="cls-2" d="M412.4,52.24c-1.82-2-3.94-3.53-6.36-4.59-2.42-1.06-5.03-1.58-7.84-1.58-4.84,0-8.72,1.57-11.63,4.7s-4.37,7.28-4.37,12.45,1.47,9.62,4.4,12.7c2.93,3.08,6.98,4.62,12.15,4.62,2.88,0,5.44-.54,7.7-1.61,2.26-1.07,4.24-2.7,5.95-4.89v13.65c-2.18,1.24-4.52,2.17-7.02,2.79-2.49.62-5.14.93-7.95.93-8.12,0-14.74-2.58-19.85-7.75-5.12-5.17-7.67-11.87-7.67-20.1s2.65-15.06,7.95-20.18,12.22-7.67,20.78-7.67c2.69,0,5.17.26,7.43.79,2.26.53,4.37,1.34,6.33,2.43v13.33Z"/>
    <path class="cls-2" d="M421.73,89.27V4.62h11.85v54.34l21.68-21.46h14.64l-23.48,22.83,25.72,28.95h-15.29l-23.27-26.71v26.71h-11.85Z"/>
    <path class="cls-2" d="M476.66,113.63V37.5h11.85v8.46c1.38-3.28,3.59-5.81,6.64-7.59,3.04-1.78,6.67-2.68,10.9-2.68,6.88,0,12.46,2.54,16.74,7.62s6.42,11.75,6.42,20.02c0,8.7-2.1,15.56-6.31,20.56-4.21,5.01-9.97,7.51-17.29,7.51-3.64,0-6.87-.73-9.69-2.18-2.82-1.46-5.29-3.68-7.4-6.66v31.08h-11.85ZM488.13,63.22c0,5.35,1.34,9.63,4.01,12.83,2.68,3.2,6.2,4.81,10.57,4.81s7.95-1.49,10.4-4.48c2.46-2.99,3.69-7.23,3.69-12.73s-1.28-9.73-3.85-12.81c-2.57-3.08-6.09-4.61-10.57-4.61s-7.97,1.49-10.49,4.48c-2.51,2.99-3.77,7.15-3.77,12.51Z"/>
    <path class="cls-2" d="M535.14,63.44c0-3.79.72-7.36,2.16-10.73,1.44-3.37,3.5-6.36,6.2-8.98,2.66-2.58,5.72-4.57,9.17-5.95,3.46-1.38,7.08-2.08,10.87-2.08s7.56.69,11.01,2.08c3.44,1.38,6.53,3.42,9.26,6.12,2.73,2.66,4.81,5.66,6.23,9.01,1.42,3.35,2.13,6.86,2.13,10.54s-.7,7.41-2.1,10.76c-1.4,3.35-3.45,6.32-6.14,8.9-2.84,2.73-5.99,4.8-9.45,6.2-3.46,1.4-7.1,2.1-10.92,2.1s-7.35-.7-10.81-2.1-6.54-3.43-9.23-6.09c-2.73-2.69-4.81-5.72-6.23-9.07s-2.13-6.92-2.13-10.71ZM579.65,63.55c0-4.81-1.55-8.88-4.64-12.21-3.1-3.33-6.88-5-11.36-5s-8.22,1.67-11.33,5c-3.11,3.33-4.67,7.4-4.67,12.21s1.56,8.88,4.67,12.21c3.11,3.33,6.89,5,11.33,5s8.22-1.67,11.33-5c3.11-3.33,4.67-7.4,4.67-12.21Z"/>
    <path class="cls-2" d="M600.88,15.1c0-2,.74-3.73,2.21-5.19,1.47-1.46,3.23-2.18,5.27-2.18s3.87.7,5.27,2.1c1.4,1.4,2.1,3.16,2.1,5.27s-.71,3.89-2.13,5.33-3.17,2.16-5.24,2.16-3.8-.74-5.27-2.21-2.21-3.23-2.21-5.27ZM602.47,89.27v-51.77h11.85v51.77h-11.85Z"/>
    <path class="cls-2" d="M628.46,89.27v-51.77h11.14v8.46c2.37-3.57,5.15-6.17,8.36-7.81,3.2-1.64,7.1-2.46,11.69-2.46,3.86,0,7.14.61,9.86,1.83,2.71,1.22,4.83,3.03,6.36,5.43.91,1.42,1.57,3.08,1.97,4.97.4,1.89.6,5.21.6,9.94v31.4h-11.96v-26.6c0-6.81-.83-11.33-2.48-13.57-1.66-2.24-4.6-3.36-8.82-3.36-2.77,0-5.24.51-7.4,1.53-2.17,1.02-3.87,2.46-5.11,4.31-.87,1.24-1.48,2.83-1.83,4.78-.35,1.95-.52,5.05-.52,9.31v23.59h-11.85Z"/>
    <path class="cls-2" d="M694.2,89.27v-41.4h-9.07v-10.38h9.07v-19.61h11.85v19.61h9.07v10.38h-9.07v41.4h-11.85Z"/>
  </g>
</svg>