<?xml version="1.0" encoding="UTF-8"?>
<svg id="Layer_1" data-name="Layer 1" xmlns="http://www.w3.org/2000/svg" viewBox="180 220 440 360">
  <defs>
    <style>
      .cls-1 {
        fill: #e96900;
        stroke-width: 0px;
      }
    </style>
  </defs>
  <path class="cls-1" d="M556.17,223.5h-122.08v172.72h84.47c0,35.3-4.85,63.67-14.5,85.1-9.67,21.43-30.06,32.58-61.15,33.41l17.65,61.78c55.47-.83,93.08-19.54,112.84-56.1,19.74-36.56,30.89-90.14,33.41-160.74.83-21,1.26-42.87,1.26-65.56v-18.7c0-28.66-23.24-51.9-51.9-51.9Z"/>
  <path class="cls-1" d="M191.93,275.4v18.7c0,22.69.43,44.56,1.26,65.56,2.52,70.6,13.67,124.18,33.41,160.74,19.76,36.56,57.36,55.28,112.84,56.1l17.65-61.78c-31.08-.83-51.47-11.98-61.15-33.41-9.65-21.43-14.5-49.8-14.5-85.1h84.47v-172.72h-122.08c-28.66,0-51.9,23.24-51.9,51.9Z"/>
  <circle class="cls-1" cx="336.12" cy="447.21" r="29.79" transform="translate(-205.68 586.61) rotate(-67.5)"/>
  <circle class="cls-1" cx="463.88" cy="447.21" r="29.79"/>
</svg>